<svg width="806" height="560" viewBox="0 0 806 560" fill="none" xmlns="http://www.w3.org/2000/svg">
<path d="M239.5 557H605.5" stroke="#545555" stroke-width="5"/>
<path d="M658 557H806" stroke="#545555" stroke-width="5"/>
<path d="M115 557H205" stroke="#545555" stroke-width="5"/>
<path d="M0 557H90" stroke="#545555" stroke-width="5"/>
<path d="M270 225V144.5L334.5 77H433.5L495.5 144.5V225L433.5 295H334.5L270 225Z" fill="#C23C2C"/>
<path d="M289 218.881V152.044L342.488 96H424.585L476 152.044V218.881L424.585 277H342.488L289 218.881Z" fill="#C23C2C" stroke="white" stroke-width="10"/>
<path d="M346.555 177.609V193.619H334.433L346.358 177.609H346.555ZM346.555 201.327V212H355.449V201.327H361.576V193.619H355.449V165.882H347.082L327.054 192.762V201.327H346.555ZM373.347 188.744C373.347 187.953 373.347 187.009 373.347 185.911C373.391 184.769 373.479 183.605 373.611 182.419C373.743 181.233 373.962 180.069 374.27 178.927C374.577 177.741 374.994 176.687 375.521 175.765C376.092 174.842 376.795 174.096 377.63 173.525C378.508 172.954 379.584 172.668 380.858 172.668C382.132 172.668 383.208 172.954 384.086 173.525C384.965 174.096 385.689 174.842 386.26 175.765C386.831 176.687 387.248 177.741 387.512 178.927C387.819 180.069 388.039 181.233 388.171 182.419C388.346 183.605 388.434 184.769 388.434 185.911C388.478 187.009 388.5 187.953 388.5 188.744C388.5 190.061 388.456 191.664 388.368 193.553C388.281 195.398 387.995 197.198 387.512 198.955C387.073 200.668 386.326 202.14 385.272 203.369C384.262 204.599 382.79 205.214 380.858 205.214C378.969 205.214 377.52 204.599 376.51 203.369C375.499 202.14 374.753 200.668 374.27 198.955C373.83 197.198 373.567 195.398 373.479 193.553C373.391 191.664 373.347 190.061 373.347 188.744ZM363.992 188.744C363.992 193.355 364.431 197.22 365.31 200.339C366.232 203.413 367.462 205.873 368.999 207.718C370.536 209.562 372.315 210.88 374.336 211.671C376.4 212.461 378.574 212.856 380.858 212.856C383.186 212.856 385.36 212.461 387.38 211.671C389.445 210.88 391.245 209.562 392.783 207.718C394.364 205.873 395.594 203.413 396.472 200.339C397.394 197.22 397.856 193.355 397.856 188.744C397.856 184.264 397.394 180.508 396.472 177.478C395.594 174.403 394.364 171.944 392.783 170.099C391.245 168.254 389.445 166.936 387.38 166.146C385.36 165.355 383.186 164.96 380.858 164.96C378.574 164.96 376.4 165.355 374.336 166.146C372.315 166.936 370.536 168.254 368.999 170.099C367.462 171.944 366.232 174.403 365.31 177.478C364.431 180.508 363.992 184.264 363.992 188.744ZM419.772 177.609V193.619H407.65L419.575 177.609H419.772ZM419.772 201.327V212H428.666V201.327H434.793V193.619H428.666V165.882H420.299L400.271 192.762V201.327H419.772Z" fill="white"/>
<rect x="370" y="295" width="26" height="262" fill="#545555"/>
<path d="M187 67.6411H114" stroke="#183AA0" stroke-width="5"/>
<path d="M623 259.641H550" stroke="#183AA0" stroke-width="5"/>
<path d="M296 68L209 68" stroke="#183AA0" stroke-width="5"/>
<path d="M732 260L645 260" stroke="#183AA0" stroke-width="5"/>
<path d="M282 53.1411H258.5C258 45.8078 252.9 33.3411 236.5 42.1411C233.667 27.8078 220.3 5.84111 189.5 32.6411C180.5 31.1411 162.8 33.1411 164 53.1411H143.5" stroke="#183AA0" stroke-width="5"/>
<path d="M718 245.141H694.5C694 237.808 688.9 225.341 672.5 234.141C669.667 219.808 656.3 197.841 625.5 224.641C616.5 223.141 598.8 225.141 600 245.141H579.5" stroke="#183AA0" stroke-width="5"/>
<circle cx="383.5" cy="113.5" r="3" fill="white" stroke="#545555" stroke-width="3"/>
<circle cx="383.5" cy="260.5" r="3" fill="white" stroke="#545555" stroke-width="3"/>
<path d="M610.8 226.271H576C574.833 222.104 570.2 214.571 561 217.771C557.667 218.604 551 222.571 551 231.771C547.167 229.104 539.5 226.371 539.5 236.771H524" stroke="#183AA0" stroke-width="5"/>
<path d="M318.2 28.6833C317.367 24.6833 318.7 19.0833 330.7 28.6833C331.033 23.85 333.9 14.5833 342.7 16.1833" stroke="#545555" stroke-width="5"/>
<path d="M296.2 15.6833C295.367 11.6833 296.7 6.08332 308.7 15.6833C309.033 10.85 311.9 1.58332 320.7 3.18332" stroke="#545555" stroke-width="5"/>
</svg>
